<mxfile host="app.diagrams.net" modified="2023-09-09T23:56:17.513Z" agent="Mozilla/5.0 (Windows NT 10.0; Win64; x64) AppleWebKit/537.36 (KHTML, like Gecko) Chrome/114.0.0.0 Safari/537.36 OPR/100.0.0.0" etag="1CFjP_EWZHtisMEtywzd" version="21.7.2" type="github">
  <diagram id="wFE0QG_FPsp0jaGvCLVb" name="Page-1">
    <mxGraphModel dx="1222" dy="709" grid="1" gridSize="10" guides="1" tooltips="1" connect="1" arrows="1" fold="1" page="1" pageScale="1" pageWidth="850" pageHeight="1100" math="0" shadow="0">
      <root>
        <mxCell id="0" />
        <mxCell id="1" parent="0" />
        <mxCell id="O7cmc4A2iPy2f7p0TZzj-73" style="edgeStyle=orthogonalEdgeStyle;rounded=0;orthogonalLoop=1;jettySize=auto;html=1;" edge="1" parent="1" source="O7cmc4A2iPy2f7p0TZzj-58" target="O7cmc4A2iPy2f7p0TZzj-72">
          <mxGeometry relative="1" as="geometry" />
        </mxCell>
        <mxCell id="O7cmc4A2iPy2f7p0TZzj-58" value="void RGB Counter(void)" style="ellipse;whiteSpace=wrap;html=1;" vertex="1" parent="1">
          <mxGeometry x="195" y="310" width="230" height="40" as="geometry" />
        </mxCell>
        <mxCell id="O7cmc4A2iPy2f7p0TZzj-59" style="edgeStyle=orthogonalEdgeStyle;rounded=0;orthogonalLoop=1;jettySize=auto;html=1;entryX=0.5;entryY=0;entryDx=0;entryDy=0;" edge="1" parent="1" source="O7cmc4A2iPy2f7p0TZzj-63">
          <mxGeometry relative="1" as="geometry">
            <mxPoint x="310" y="649.1700000000001" as="targetPoint" />
          </mxGeometry>
        </mxCell>
        <mxCell id="O7cmc4A2iPy2f7p0TZzj-60" value="True" style="edgeLabel;html=1;align=center;verticalAlign=middle;resizable=0;points=[];" vertex="1" connectable="0" parent="O7cmc4A2iPy2f7p0TZzj-59">
          <mxGeometry x="-0.0402" y="-1" relative="1" as="geometry">
            <mxPoint as="offset" />
          </mxGeometry>
        </mxCell>
        <mxCell id="O7cmc4A2iPy2f7p0TZzj-61" style="edgeStyle=orthogonalEdgeStyle;rounded=0;orthogonalLoop=1;jettySize=auto;html=1;" edge="1" parent="1" source="O7cmc4A2iPy2f7p0TZzj-63">
          <mxGeometry relative="1" as="geometry">
            <mxPoint x="310" y="370" as="targetPoint" />
            <Array as="points">
              <mxPoint x="580" y="540" />
              <mxPoint x="580" y="370" />
            </Array>
          </mxGeometry>
        </mxCell>
        <mxCell id="O7cmc4A2iPy2f7p0TZzj-62" value="False" style="edgeLabel;html=1;align=center;verticalAlign=middle;resizable=0;points=[];" vertex="1" connectable="0" parent="O7cmc4A2iPy2f7p0TZzj-61">
          <mxGeometry x="-0.3753" y="3" relative="1" as="geometry">
            <mxPoint x="-136" y="3" as="offset" />
          </mxGeometry>
        </mxCell>
        <mxCell id="O7cmc4A2iPy2f7p0TZzj-63" value="if (i&amp;lt;7)" style="rhombus;whiteSpace=wrap;html=1;" vertex="1" parent="1">
          <mxGeometry x="260" y="500" width="100" height="80" as="geometry" />
        </mxCell>
        <mxCell id="O7cmc4A2iPy2f7p0TZzj-64" style="edgeStyle=orthogonalEdgeStyle;rounded=0;orthogonalLoop=1;jettySize=auto;html=1;entryX=0.5;entryY=0;entryDx=0;entryDy=0;" edge="1" parent="1">
          <mxGeometry relative="1" as="geometry">
            <mxPoint x="310" y="700" as="sourcePoint" />
            <mxPoint x="310" y="740" as="targetPoint" />
          </mxGeometry>
        </mxCell>
        <mxCell id="O7cmc4A2iPy2f7p0TZzj-65" style="edgeStyle=orthogonalEdgeStyle;rounded=0;orthogonalLoop=1;jettySize=auto;html=1;" edge="1" parent="1">
          <mxGeometry relative="1" as="geometry">
            <mxPoint x="310" y="800" as="sourcePoint" />
            <mxPoint x="310" y="839.1700000000001" as="targetPoint" />
          </mxGeometry>
        </mxCell>
        <mxCell id="O7cmc4A2iPy2f7p0TZzj-66" value="HAL_GPIO_WritePin(GPIOC,color[i],GPIO_PIN_SET);" style="rounded=0;whiteSpace=wrap;html=1;" vertex="1" parent="1">
          <mxGeometry x="150" y="639.1700000000001" width="320" height="60" as="geometry" />
        </mxCell>
        <mxCell id="O7cmc4A2iPy2f7p0TZzj-67" value="HAL_Delay(200);" style="rounded=0;whiteSpace=wrap;html=1;" vertex="1" parent="1">
          <mxGeometry x="150" y="740" width="320" height="60" as="geometry" />
        </mxCell>
        <mxCell id="O7cmc4A2iPy2f7p0TZzj-68" style="edgeStyle=orthogonalEdgeStyle;rounded=0;orthogonalLoop=1;jettySize=auto;html=1;entryX=0.5;entryY=0;entryDx=0;entryDy=0;" edge="1" parent="1" source="O7cmc4A2iPy2f7p0TZzj-69" target="O7cmc4A2iPy2f7p0TZzj-70">
          <mxGeometry relative="1" as="geometry" />
        </mxCell>
        <mxCell id="O7cmc4A2iPy2f7p0TZzj-69" value="HAL_GPIO_WritePin(GPIOC,color[i],GPIO_PIN_RESET);" style="rounded=0;whiteSpace=wrap;html=1;" vertex="1" parent="1">
          <mxGeometry x="150" y="829.1700000000001" width="320" height="60" as="geometry" />
        </mxCell>
        <mxCell id="O7cmc4A2iPy2f7p0TZzj-75" style="edgeStyle=orthogonalEdgeStyle;rounded=0;orthogonalLoop=1;jettySize=auto;html=1;exitX=0;exitY=0.5;exitDx=0;exitDy=0;" edge="1" parent="1" source="O7cmc4A2iPy2f7p0TZzj-70">
          <mxGeometry relative="1" as="geometry">
            <mxPoint x="310" y="480" as="targetPoint" />
            <mxPoint x="240" y="950.0000000000002" as="sourcePoint" />
            <Array as="points">
              <mxPoint x="10" y="950" />
              <mxPoint x="10" y="480" />
              <mxPoint x="290" y="480" />
            </Array>
          </mxGeometry>
        </mxCell>
        <mxCell id="O7cmc4A2iPy2f7p0TZzj-70" value="i++;" style="rounded=0;whiteSpace=wrap;html=1;" vertex="1" parent="1">
          <mxGeometry x="250" y="920" width="120" height="60" as="geometry" />
        </mxCell>
        <mxCell id="O7cmc4A2iPy2f7p0TZzj-74" style="edgeStyle=orthogonalEdgeStyle;rounded=0;orthogonalLoop=1;jettySize=auto;html=1;entryX=0.5;entryY=0;entryDx=0;entryDy=0;" edge="1" parent="1" source="O7cmc4A2iPy2f7p0TZzj-72" target="O7cmc4A2iPy2f7p0TZzj-63">
          <mxGeometry relative="1" as="geometry" />
        </mxCell>
        <mxCell id="O7cmc4A2iPy2f7p0TZzj-72" value="int i=0" style="rounded=0;whiteSpace=wrap;html=1;" vertex="1" parent="1">
          <mxGeometry x="250" y="390" width="120" height="60" as="geometry" />
        </mxCell>
      </root>
    </mxGraphModel>
  </diagram>
</mxfile>
